<?xml version="1.0" encoding="UTF-8" standalone="no"?>
<!-- Created with Inkscape (http://www.inkscape.org/) -->

<svg
   xmlns:dc="http://purl.org/dc/elements/1.1/"
   xmlns:cc="http://creativecommons.org/ns#"
   xmlns:rdf="http://www.w3.org/1999/02/22-rdf-syntax-ns#"
   xmlns:svg="http://www.w3.org/2000/svg"
   xmlns="http://www.w3.org/2000/svg"
   xmlns:sodipodi="http://sodipodi.sourceforge.net/DTD/sodipodi-0.dtd"
   xmlns:inkscape="http://www.inkscape.org/namespaces/inkscape"
   width="256"
   height="64"
   id="svg2"
   version="1.1"
   inkscape:version="0.48.4 r9939"
   sodipodi:docname="drawing.svg"
   inkscape:export-filename="/home/xymus/projects/inf5071/demo2/spritesheet/drawing.png"
   inkscape:export-xdpi="90"
   inkscape:export-ydpi="90">
  <defs
     id="defs4" />
  <sodipodi:namedview
     id="base"
     pagecolor="#ffffff"
     bordercolor="#666666"
     borderopacity="1.0"
     inkscape:pageopacity="0.0"
     inkscape:pageshadow="2"
     inkscape:zoom="5.6"
     inkscape:cx="178.93757"
     inkscape:cy="7.8871976"
     inkscape:document-units="px"
     inkscape:current-layer="layer1"
     showgrid="false"
     showguides="true"
     inkscape:guide-bbox="true"
     inkscape:window-width="1680"
     inkscape:window-height="995"
     inkscape:window-x="0"
     inkscape:window-y="27"
     inkscape:window-maximized="1">
    <sodipodi:guide
       orientation="1,0"
       position="64.902301,86.368043"
       id="guide3773" />
    <sodipodi:guide
       orientation="1,0"
       position="130.81475,65.912454"
       id="guide3775" />
    <sodipodi:guide
       orientation="1,0"
       position="197.48482,59.346462"
       id="guide3777" />
  </sodipodi:namedview>
  <metadata
     id="metadata7">
    <rdf:RDF>
      <cc:Work
         rdf:about="">
        <dc:format>image/svg+xml</dc:format>
        <dc:type
           rdf:resource="http://purl.org/dc/dcmitype/StillImage" />
        <dc:title></dc:title>
      </cc:Work>
    </rdf:RDF>
  </metadata>
  <g
     inkscape:label="Layer 1"
     inkscape:groupmode="layer"
     id="layer1"
     transform="translate(0,-988.36218)">
    <g
       id="g3766"
       transform="translate(-5.4295701,7.0710678)">
      <path
         sodipodi:nodetypes="ssscs"
         inkscape:connector-curvature="0"
         id="path3759"
         d="m 58.232232,1023.3764 c 0.246504,10.6484 -8.634508,19.4341 -19.285715,19.6171 -10.651206,0.183 -19.285715,-8.3031 -19.285715,-18.9543 0,-10.6512 6.041628,-26.9013 13.409266,-38.05175 7.551716,24.72765 24.762894,20.14155 25.162164,37.38895 z"
         style="fill:#ff6600;fill-opacity:1;stroke:#000000;stroke-width:2;stroke-linecap:round;stroke-linejoin:miter;stroke-miterlimit:4;stroke-opacity:1;stroke-dasharray:none" />
      <path
         style="fill:#ff9e00;fill-opacity:1;stroke:#000000;stroke-width:2;stroke-linecap:round;stroke-linejoin:miter;stroke-miterlimit:4;stroke-opacity:1;stroke-dasharray:none"
         d="m 24.489396,1024.9916 c -0.168701,7.2875 5.909236,13.3002 13.19865,13.4255 7.289413,0.1252 14.942527,-5.8942 13.19865,-12.9719 -3.199539,-12.9857 -0.608769,-25.1333 -4.757541,-31.7237 -5.168202,16.923 -21.366509,19.4665 -21.639759,31.2701 z"
         id="path3762"
         inkscape:connector-curvature="0"
         sodipodi:nodetypes="ssscs" />
      <path
         sodipodi:nodetypes="ssscs"
         inkscape:connector-curvature="0"
         id="path3764"
         d="m 46.13588,1026.2559 c 1.013553,5.9179 -4.737096,9.0619 -9.334514,9.1652 -4.597417,0.1034 -8.32436,-4.6809 -8.32436,-10.6856 0,-6.0046 2.607769,-15.1655 5.787887,-21.4516 3.247489,13.9846 10.781595,16.6114 11.870987,22.972 z"
         style="fill:#ff4600;fill-opacity:1;stroke:#000000;stroke-width:2;stroke-linecap:round;stroke-linejoin:miter;stroke-miterlimit:4;stroke-opacity:1;stroke-dasharray:none" />
    </g>
    <g
       transform="translate(61.240498,7.0710678)"
       id="g3779">
      <path
         style="fill:#ff6600;fill-opacity:1;stroke:#000000;stroke-width:2;stroke-linecap:round;stroke-linejoin:miter;stroke-miterlimit:4;stroke-opacity:1;stroke-dasharray:none"
         d="m 58.232232,1023.3764 c 0.246504,10.6484 -8.634508,19.4341 -19.285715,19.6171 -10.651206,0.183 -19.285715,-8.3031 -19.285715,-18.9543 0,-10.6512 6.041628,-26.9013 13.409266,-38.05175 7.551716,24.72765 24.762894,20.14155 25.162164,37.38895 z"
         id="path3781"
         inkscape:connector-curvature="0"
         sodipodi:nodetypes="ssscs" />
      <path
         sodipodi:nodetypes="ssscs"
         inkscape:connector-curvature="0"
         id="path3783"
         d="m 23.47049,1025.6739 c -0.181603,7.8449 6.361175,14.3174 14.208083,14.4523 7.846908,0.1348 16.085333,-6.345 14.208084,-13.964 -3.44424,-13.9789 -0.655328,-27.0555 -5.121398,-34.14993 -5.563466,18.21723 -23.000621,20.95533 -23.294769,33.66163 z"
         style="fill:#ff9e00;fill-opacity:1;stroke:#000000;stroke-width:2.15296006;stroke-linecap:round;stroke-linejoin:miter;stroke-miterlimit:4;stroke-opacity:1;stroke-dasharray:none" />
      <path
         style="fill:#ff4600;fill-opacity:1;stroke:#000000;stroke-width:2.16738367;stroke-linecap:round;stroke-linejoin:miter;stroke-miterlimit:4;stroke-opacity:1;stroke-dasharray:none"
         d="m 46.869916,1026.8336 c 1.098379,6.4132 -5.133552,9.8203 -10.115737,9.9322 -4.982183,0.1121 -9.021041,-5.0726 -9.021041,-11.5799 0,-6.5071 2.826018,-16.4347 6.272286,-23.2469 3.519278,15.155 11.683927,18.0017 12.864492,24.8946 z"
         id="path3785"
         inkscape:connector-curvature="0"
         sodipodi:nodetypes="ssscs" />
    </g>
    <g
       transform="translate(125.38518,7.0710678)"
       id="g3787">
      <path
         style="fill:#ff6600;fill-opacity:1;stroke:#000000;stroke-width:2;stroke-linecap:round;stroke-linejoin:miter;stroke-miterlimit:4;stroke-opacity:1;stroke-dasharray:none"
         d="m 58.232232,1023.3764 c 0.246504,10.6484 -8.634508,19.4341 -19.285715,19.6171 -10.651206,0.183 -19.285715,-8.3031 -19.285715,-18.9543 0,-10.6512 3.363057,-27.79416 10.730695,-38.94461 7.551716,24.72761 27.441465,21.03441 27.840735,38.28181 z"
         id="path3789"
         inkscape:connector-curvature="0"
         sodipodi:nodetypes="ssscs" />
      <path
         sodipodi:nodetypes="ssscs"
         inkscape:connector-curvature="0"
         id="path3791"
         d="m 24.489396,1024.9916 c -0.168701,7.2875 5.909236,13.3002 13.19865,13.4255 7.289413,0.1252 14.942527,-5.8942 13.19865,-12.9719 -3.199539,-12.9857 0.284088,-23.8833 -3.864684,-30.4737 -5.168202,16.923 -22.259366,18.2165 -22.532616,30.0201 z"
         style="fill:#ff9e00;fill-opacity:1;stroke:#000000;stroke-width:2;stroke-linecap:round;stroke-linejoin:miter;stroke-miterlimit:4;stroke-opacity:1;stroke-dasharray:none" />
      <path
         style="fill:#ff4600;fill-opacity:1;stroke:#000000;stroke-width:2;stroke-linecap:round;stroke-linejoin:miter;stroke-miterlimit:4;stroke-opacity:1;stroke-dasharray:none"
         d="m 46.13588,1026.2559 c 1.013553,5.9179 -4.737096,9.0619 -9.334514,9.1652 -4.597417,0.1034 -8.32436,-4.6809 -8.32436,-10.6856 0,-6.0046 0.464912,-15.1655 3.64503,-21.4516 3.247489,13.9846 12.924452,16.6114 14.013844,22.972 z"
         id="path3793"
         inkscape:connector-curvature="0"
         sodipodi:nodetypes="ssscs" />
    </g>
    <g
       id="g3795"
       transform="translate(188.77225,7.0710678)">
      <path
         sodipodi:nodetypes="ssscs"
         inkscape:connector-curvature="0"
         id="path3797"
         d="m 58.232232,1023.3764 c 0.246504,10.6484 -8.634508,19.4341 -19.285715,19.6171 -10.651206,0.183 -19.285715,-8.3031 -19.285715,-18.9543 0,-10.6512 9.255914,-27.97273 16.623552,-39.12318 7.551716,24.72768 21.548608,21.21298 21.947878,38.46038 z"
         style="fill:#ff6600;fill-opacity:1;stroke:#000000;stroke-width:2;stroke-linecap:round;stroke-linejoin:miter;stroke-miterlimit:4;stroke-opacity:1;stroke-dasharray:none" />
      <path
         style="fill:#ff9e00;fill-opacity:1;stroke:#000000;stroke-width:2;stroke-linecap:round;stroke-linejoin:miter;stroke-miterlimit:4;stroke-opacity:1;stroke-dasharray:none"
         d="m 24.489396,1024.9916 c -0.168701,7.2875 5.909236,13.3002 13.19865,13.4255 7.289413,0.1252 14.942527,-5.8942 13.19865,-12.9719 -3.199539,-12.9857 -1.323055,-21.2047 -5.471827,-27.79513 -5.168202,16.92303 -20.652223,15.53793 -20.925473,27.34153 z"
         id="path3799"
         inkscape:connector-curvature="0"
         sodipodi:nodetypes="ssscs" />
      <path
         sodipodi:nodetypes="ssscs"
         inkscape:connector-curvature="0"
         id="path3801"
         d="m 46.13588,1026.2559 c 1.013553,5.9179 -4.737096,9.0619 -9.334514,9.1652 -4.597417,0.1034 -8.32436,-4.6809 -8.32436,-10.6856 0,-6.0046 1.179198,-12.3084 4.359316,-18.5945 3.247489,13.9846 12.210166,13.7543 13.299558,20.1149 z"
         style="fill:#ff4600;fill-opacity:1;stroke:#000000;stroke-width:2;stroke-linecap:round;stroke-linejoin:miter;stroke-miterlimit:4;stroke-opacity:1;stroke-dasharray:none" />
    </g>
  </g>
</svg>
