<?xml version="1.0" encoding="UTF-8" standalone="no"?>
<!-- Created with Inkscape (http://www.inkscape.org/) -->

<svg
   xmlns:dc="http://purl.org/dc/elements/1.1/"
   xmlns:cc="http://creativecommons.org/ns#"
   xmlns:rdf="http://www.w3.org/1999/02/22-rdf-syntax-ns#"
   xmlns:svg="http://www.w3.org/2000/svg"
   xmlns="http://www.w3.org/2000/svg"
   xmlns:sodipodi="http://sodipodi.sourceforge.net/DTD/sodipodi-0.dtd"
   xmlns:inkscape="http://www.inkscape.org/namespaces/inkscape"
   width="744.09448819"
   height="1052.3622047"
   id="svg2"
   version="1.1"
   inkscape:version="0.48.5 r10040"
   sodipodi:docname="drawing.svg">
  <defs
     id="defs4" />
  <sodipodi:namedview
     id="base"
     pagecolor="#464646"
     bordercolor="#666666"
     borderopacity="1.0"
     inkscape:pageopacity="0"
     inkscape:pageshadow="2"
     inkscape:zoom="2.8"
     inkscape:cx="308.401"
     inkscape:cy="850.09993"
     inkscape:document-units="px"
     inkscape:current-layer="layer1"
     showgrid="false"
     inkscape:window-width="1030"
     inkscape:window-height="731"
     inkscape:window-x="3051"
     inkscape:window-y="485"
     inkscape:window-maximized="0" />
  <metadata
     id="metadata7">
    <rdf:RDF>
      <cc:Work
         rdf:about="">
        <dc:format>image/svg+xml</dc:format>
        <dc:type
           rdf:resource="http://purl.org/dc/dcmitype/StillImage" />
        <dc:title></dc:title>
      </cc:Work>
    </rdf:RDF>
  </metadata>
  <g
     inkscape:label="Layer 1"
     inkscape:groupmode="layer"
     id="layer1">
    <path
       style="fill:#666666;fill-opacity:1;stroke:none"
       d="m 327.4375,115.8125 c -11.34707,0 -20.5625,9.21543 -20.5625,20.5625 0.20666,12.77998 0.24822,65.344 0,80 0,11.34707 9.21543,20.53125 20.5625,20.53125 11.34707,0 20.53125,-9.18418 20.53125,-20.53125 -0.24901,-19.2721 0.21853,-68.7131 0,-80 0,-11.34707 -9.18418,-20.5625 -20.53125,-20.5625 z"
       id="path3012"
       inkscape:connector-curvature="0"
       sodipodi:nodetypes="sccsccs"
       inkscape:export-filename="/home/xymus/arriere.png"
       inkscape:export-xdpi="90"
       inkscape:export-ydpi="90" />
    <path
       sodipodi:type="arc"
       style="fill:#ffffff;fill-opacity:1;stroke:none"
       id="path2985"
       sodipodi:cx="405.71429"
       sodipodi:cy="538.07648"
       sodipodi:rx="68.571426"
       sodipodi:ry="68.571426"
       d="m 474.28572,538.07648 a 68.571426,68.571426 0 1 1 -137.14285,0 68.571426,68.571426 0 1 1 137.14285,0 z"
       transform="matrix(0.23333334,0,0,0.23333334,192.76191,90.811008)"
       inkscape:export-filename="/home/xymus/light.png"
       inkscape:export-xdpi="90"
       inkscape:export-ydpi="90" />
    <path
       inkscape:export-ydpi="90"
       inkscape:export-xdpi="90"
       inkscape:export-filename="/home/xymus/light.png"
       transform="matrix(0.23333334,0,0,0.23333334,192.76191,10.811001)"
       d="m 474.28572,538.07648 a 68.571426,68.571426 0 1 1 -137.14285,0 68.571426,68.571426 0 1 1 137.14285,0 z"
       sodipodi:ry="68.571426"
       sodipodi:rx="68.571426"
       sodipodi:cy="538.07648"
       sodipodi:cx="405.71429"
       id="path3010"
       style="fill:#ffffff;fill-opacity:1;stroke:none"
       sodipodi:type="arc" />
  </g>
</svg>
