<?xml version="1.0" encoding="UTF-8" standalone="no"?>
<!-- Created with Inkscape (http://www.inkscape.org/) -->

<svg
   xmlns:dc="http://purl.org/dc/elements/1.1/"
   xmlns:cc="http://creativecommons.org/ns#"
   xmlns:rdf="http://www.w3.org/1999/02/22-rdf-syntax-ns#"
   xmlns:svg="http://www.w3.org/2000/svg"
   xmlns="http://www.w3.org/2000/svg"
   xmlns:sodipodi="http://sodipodi.sourceforge.net/DTD/sodipodi-0.dtd"
   xmlns:inkscape="http://www.inkscape.org/namespaces/inkscape"
   width="256"
   height="64"
   id="svg2"
   version="1.1"
   inkscape:version="0.48.5 r10040"
   sodipodi:docname="drawing.svg"
   inkscape:export-filename="/home/xymus/projects/inf5071-demo/demo2/hexagon/assets/vague.png"
   inkscape:export-xdpi="90"
   inkscape:export-ydpi="90">
  <defs
     id="defs4" />
  <sodipodi:namedview
     id="base"
     pagecolor="#ffffff"
     bordercolor="#666666"
     borderopacity="1.0"
     inkscape:pageopacity="0.0"
     inkscape:pageshadow="2"
     inkscape:zoom="2.8"
     inkscape:cx="130.87009"
     inkscape:cy="57.138631"
     inkscape:document-units="px"
     inkscape:current-layer="layer1"
     showgrid="false"
     inkscape:window-width="918"
     inkscape:window-height="879"
     inkscape:window-x="2560"
     inkscape:window-y="27"
     inkscape:window-maximized="0" />
  <metadata
     id="metadata7">
    <rdf:RDF>
      <cc:Work
         rdf:about="">
        <dc:format>image/svg+xml</dc:format>
        <dc:type
           rdf:resource="http://purl.org/dc/dcmitype/StillImage" />
        <dc:title></dc:title>
      </cc:Work>
    </rdf:RDF>
  </metadata>
  <g
     inkscape:label="Layer 1"
     inkscape:groupmode="layer"
     id="layer1"
     transform="translate(0,-988.36218)">
    <g
       id="g3145">
      <path
         inkscape:connector-curvature="0"
         id="path3080"
         d="m 9.4375,1002.875 c -5.3300251,1.1592 -2.3260297,7.9204 -0.6180991,10.8656 3.0223041,5.9349 3.9655161,13.2489 7.9618491,18.5406 5.354029,2.6718 6.771395,-5.076 8.060134,-8.4525 1.543289,-6.1833 6.276174,-11.9135 6.346116,-18.3287 -1.243523,-4.2771 -7.754385,-2.8773 -7.787598,1.4889 -2.254233,4.4657 -4.508465,17.258 -6.762697,6.2006 -2.15177,-3.1572 -1.808178,-10.8966 -7.199705,-10.3145 z"
         style="font-size:33.26899719px;font-style:normal;font-variant:normal;font-weight:bold;font-stretch:normal;line-height:125%;letter-spacing:0px;word-spacing:0px;fill:#000000;fill-opacity:1;stroke:none;font-family:Comfortaa;-inkscape-font-specification:Comfortaa Bold" />
      <path
         inkscape:connector-curvature="0"
         id="path3082"
         d="m 36.625,1010.6562 c -9.223089,0.3765 -13.735071,13.4293 -6.34375,19.3438 3.217527,3.3172 8.606918,3.2063 12.40625,1.9375 3.57267,2.963 7.804505,-2.0243 6.09375,-5.8125 1.510621,-7.9041 -3.479774,-16.2847 -12.15625,-15.4688 z m 1.03125,7.375 c 5.366605,-0.1947 4.364056,8.6868 -0.84375,7.3126 -4.197344,-0.9974 -3.50054,-7.3307 0.84375,-7.3126 z"
         style="font-size:33.26899719px;font-style:normal;font-variant:normal;font-weight:bold;font-stretch:normal;line-height:125%;letter-spacing:0px;word-spacing:0px;fill:#000000;fill-opacity:1;stroke:none;font-family:Comfortaa;-inkscape-font-specification:Comfortaa Bold" />
      <path
         inkscape:connector-curvature="0"
         id="path3084"
         d="m 57.40625,1010.6562 c -8.73305,0.3876 -13.433622,12.2834 -7.1875,18.4688 -5.213571,2.3903 -0.678575,8.9187 3.125,10.25 7.129321,4.0802 17.758578,-2.0185 16.21875,-10.625 0.875286,-6.4341 0.06496,-14.7185 -6.90625,-17.3438 -1.647368,-0.6498 -3.445189,-0.8975 -5.25,-0.75 z m 1.0625,7.375 c 5.008258,-0.2254 4.592118,8.1402 -0.40625,7.375 -4.565343,-0.44 -4.204247,-7.4248 0.40625,-7.375 z m 2.375,14.5626 c -0.848877,1.3843 -6.471816,-0.1494 -2.84375,0.2187 0.96061,0.045 1.90442,-0.056 2.84375,-0.2187 z"
         style="font-size:33.26899719px;font-style:normal;font-variant:normal;font-weight:bold;font-stretch:normal;line-height:125%;letter-spacing:0px;word-spacing:0px;fill:#000000;fill-opacity:1;stroke:none;font-family:Comfortaa;-inkscape-font-specification:Comfortaa Bold" />
      <path
         inkscape:connector-curvature="0"
         id="path3086"
         d="m 71.34375,1010.6562 c -5.529482,1.3603 -2.514959,8.8233 -3.125,12.8126 0.458193,7.191 8.966735,11.1552 15.03125,8.6562 3.639514,2.5958 7.43066,-2.3748 5.84375,-6 -1.202288,-4.6918 2.456606,-11.5355 -1.875,-15.0625 -4.329097,-2.2049 -6.991563,3.7303 -5.5,7.25 1.634804,3.3189 -1.419114,9.3129 -5.21875,6.3125 -3.18078,-3.9341 2.412759,-13.4754 -4.96875,-14 l -0.1875,0.031 z"
         style="font-size:33.26899719px;font-style:normal;font-variant:normal;font-weight:bold;font-stretch:normal;line-height:125%;letter-spacing:0px;word-spacing:0px;fill:#000000;fill-opacity:1;stroke:none;font-family:Comfortaa;-inkscape-font-specification:Comfortaa Bold" />
      <path
         inkscape:connector-curvature="0"
         id="path3088"
         d="m 97.6875,1010.6562 c -9.025654,0.3727 -13.576577,12.9592 -6.71875,18.9688 4.127885,4.628 14.06687,4.4755 16.21875,-1.9062 -0.11096,-1.6874 -1.06397,-2.6076 1.09375,-2.9688 4.0114,-4.1307 -0.36426,-11.1486 -4.8125,-13.0938 -1.78635,-0.885 -3.806464,-1.1467 -5.78125,-1 z m 1.34375,14.75 c -0.295117,0.1161 -1.35069,-0.1102 0,0 z"
         style="font-size:33.26899719px;font-style:normal;font-variant:normal;font-weight:bold;font-stretch:normal;line-height:125%;letter-spacing:0px;word-spacing:0px;fill:#000000;fill-opacity:1;stroke:none;font-family:Comfortaa;-inkscape-font-specification:Comfortaa Bold" />
      <path
         inkscape:connector-curvature="0"
         id="path3090"
         d="m 121.25,1010.6562 c -5.76872,1.6384 -2.12358,9.5232 -3.125,13.6563 -1.19957,3.4286 0.35308,10.0022 5.125,8.2187 5.78173,-2.7335 -1.55772,-13.1047 5.625,-14.4687 2.66172,0.8224 6.8114,0.8333 7,-3 -0.46067,-5.7112 -8.28176,-4.5266 -11.78125,-3.6563 -0.77323,-0.659 -1.83801,-0.8891 -2.84375,-0.75 z"
         style="font-size:33.26899719px;font-style:normal;font-variant:normal;font-weight:bold;font-stretch:normal;line-height:125%;letter-spacing:0px;word-spacing:0px;fill:#000000;fill-opacity:1;stroke:none;font-family:Comfortaa;-inkscape-font-specification:Comfortaa Bold" />
      <path
         inkscape:connector-curvature="0"
         id="path3092"
         d="m 146.59375,1002.875 c -3.25746,1.2319 -7.29907,4.912 -6.03125,8.5938 -8.4523,3.0734 -9.04565,16.2923 -0.8125,20.125 4.44974,2.4645 12.88298,1.3488 13.5625,-4.5313 -1.67261,-2.5262 3.45682,-2.3103 2.6875,-5.4687 0.0646,-4.8082 -3.52599,-9.3668 -8.09375,-10.5626 3.87888,-1.7995 4.18941,-8.4688 -1.3125,-8.1562 z m -1.4375,22.5312 c -0.29512,0.1161 -1.35069,-0.1102 0,0 z"
         style="font-size:33.26899719px;font-style:normal;font-variant:normal;font-weight:bold;font-stretch:normal;line-height:125%;letter-spacing:0px;word-spacing:0px;fill:#000000;fill-opacity:1;stroke:none;font-family:Comfortaa;-inkscape-font-specification:Comfortaa Bold" />
      <path
         inkscape:connector-curvature="0"
         id="path3094"
         d="m 157.6875,1010.6562 c -5.55957,1.6505 -2.55169,9.1952 -2.96875,13.4063 0.85632,6.9392 9.07694,10.446 14.96875,8.0625 3.64737,2.6016 7.42856,-2.3739 5.84375,-6 -1.23165,-4.688 2.54654,-11.7251 -2,-15.125 -4.31873,-2.0222 -6.86228,3.826 -5.40625,7.3125 1.23942,2.9752 -0.63664,8.7098 -4.59375,6.7187 -4.67128,-3.1258 2.50709,-14.5086 -5.84375,-14.375 z"
         style="font-size:33.26899719px;font-style:normal;font-variant:normal;font-weight:bold;font-stretch:normal;line-height:125%;letter-spacing:0px;word-spacing:0px;fill:#000000;fill-opacity:1;stroke:none;font-family:Comfortaa;-inkscape-font-specification:Comfortaa Bold" />
      <path
         inkscape:connector-curvature="0"
         id="path3096"
         d="m 182.6875,1010.6562 c -6.27579,-0.5939 -12.09059,7.8206 -6.21875,12.25 -2.57694,0.9702 -3.39713,5.6974 -0.15625,7.3126 5.26087,5.4716 18.26079,1.9646 16.25,-6.625 -0.55712,-2.1815 -3.46725,-3.0649 -0.59375,-4.4063 3.3701,-5.0155 -5.35341,-9.1861 -9.28125,-8.5313 z m 1.75,7.4688 c 1.16548,0.3878 -0.50276,-0.05 0,0 z m -1.8125,7.2188 c -0.43787,-0.011 -1.78351,-0.7269 0,0 z"
         style="font-size:33.26899719px;font-style:normal;font-variant:normal;font-weight:bold;font-stretch:normal;line-height:125%;letter-spacing:0px;word-spacing:0px;fill:#000000;fill-opacity:1;stroke:none;font-family:Comfortaa;-inkscape-font-specification:Comfortaa Bold" />
      <path
         inkscape:connector-curvature="0"
         id="path3098"
         d="m 199.90625,1010.6562 c -6.28397,-0.5964 -12.07936,7.8221 -6.21875,12.25 -2.57694,0.9702 -3.39713,5.6974 -0.15625,7.3126 5.12632,5.2434 17.57269,2.2897 16.375,-6.0313 0.0798,-2.3633 -3.91935,-3.6017 -0.8125,-4.875 3.61029,-5.0434 -5.17108,-9.3137 -9.1875,-8.6563 z m 1.6875,7.4688 c 0.81583,0.1556 -0.15222,0.1388 0,0 z m -1.75,7.2188 c -0.43787,-0.011 -1.78351,-0.7269 0,0 z"
         style="font-size:33.26899719px;font-style:normal;font-variant:normal;font-weight:bold;font-stretch:normal;line-height:125%;letter-spacing:0px;word-spacing:0px;fill:#000000;fill-opacity:1;stroke:none;font-family:Comfortaa;-inkscape-font-specification:Comfortaa Bold" />
      <path
         inkscape:connector-curvature="0"
         id="path3100"
         d="m 212.5625,1005.4375 c -3.47282,0.2183 -4.13554,4.7565 -2.59375,6.8125 -1.23559,5.8105 -0.54453,12.3624 -0.25,18.2812 1.51803,4.2234 8.25107,1.9001 7.09375,-2.4062 -0.0573,-5.2583 0.25848,-11.8352 -0.375,-16.4688 1.91115,-2.8129 -0.45357,-6.7623 -3.875,-6.2187 z"
         style="font-size:33.26899719px;font-style:normal;font-variant:normal;font-weight:bold;font-stretch:normal;line-height:125%;letter-spacing:0px;word-spacing:0px;fill:#000000;fill-opacity:1;stroke:none;font-family:Comfortaa;-inkscape-font-specification:Comfortaa Bold" />
      <path
         inkscape:connector-curvature="0"
         id="path3102"
         d="m 226.34375,1010.6562 c -9.00746,0.3745 -13.58574,12.9497 -6.71875,18.9688 4.12205,4.6182 14.06109,4.4838 16.21875,-1.9062 -0.10975,-1.7279 -1.07824,-2.5856 1.09375,-2.9688 4.0114,-4.1307 -0.36426,-11.1486 -4.8125,-13.0938 -1.78179,-0.8839 -3.80796,-1.1527 -5.78125,-1 z m 1.34375,14.75 c -0.29512,0.1161 -1.35069,-0.1102 0,0 z"
         style="font-size:33.26899719px;font-style:normal;font-variant:normal;font-weight:bold;font-stretch:normal;line-height:125%;letter-spacing:0px;word-spacing:0px;fill:#000000;fill-opacity:1;stroke:none;font-family:Comfortaa;-inkscape-font-specification:Comfortaa Bold" />
      <path
         inkscape:connector-curvature="0"
         id="path3104"
         d="m 240.71875,1002.875 c -5.83131,1.5414 -2.18523,9.5314 -3.1875,13.6875 -0.67815,3.186 0.85092,7.082 0,9.75 -3.01371,4.5187 4.48135,9.219 7.25,4.625 2.15615,-2.5408 -1.10851,-4.9831 0.15625,-7.4375 -0.84188,-6.2818 1.5352,-13.482 -0.875,-19.3438 -0.82027,-0.971 -2.07969,-1.4795 -3.34375,-1.2812 z"
         style="font-size:33.26899719px;font-style:normal;font-variant:normal;font-weight:bold;font-stretch:normal;line-height:125%;letter-spacing:0px;word-spacing:0px;fill:#000000;fill-opacity:1;stroke:none;font-family:Comfortaa;-inkscape-font-specification:Comfortaa Bold" />
    </g>
    <g
       id="g3063"
       style="fill:#ffffff">
      <path
         d="m 18.813511,1030.8202 c -0.758094,0 -1.283336,-0.3628 -1.575729,-1.0884 l -8.7233651,-22.3039 c -0.1299584,-0.3357 -0.1949368,-0.6281 -0.1949356,-0.8772 -1.2e-6,-0.2382 0.043318,-0.4602 0.129957,-0.666 0.086637,-0.2166 0.2057637,-0.4007 0.3573818,-0.5523 0.1624444,-0.1625 0.34655,-0.287 0.5523174,-0.3737 0.2057628,-0.087 0.4331873,-0.1299 0.6822745,-0.1299 0.758079,0 1.288736,0.3411 1.591973,1.0234 l 7.180126,18.4701 7.180125,-18.4701 c 0.259895,-0.6823 0.790552,-1.0234 1.591974,-1.0234 0.238233,0 0.460243,0.043 0.666029,0.1299 0.216574,0.087 0.40068,0.2112 0.552318,0.3737 0.162424,0.1516 0.286966,0.3357 0.373626,0.5523 0.08662,0.2058 0.129935,0.4278 0.129957,0.666 -2.2e-5,0.2816 -0.065,0.574 -0.194935,0.8772 l -8.723365,22.3039 c -0.292417,0.7256 -0.817659,1.0884 -1.575729,1.0884"
         style="font-size:33.26899719000000033px;font-style:normal;font-variant:normal;font-weight:bold;font-stretch:normal;line-height:125%;letter-spacing:0px;word-spacing:0px;fill:#ffffff;fill-opacity:1;stroke:none;font-family:Comfortaa;-inkscape-font-specification:Comfortaa Bold"
         id="path2998"
         inkscape:connector-curvature="0" />
      <path
         d="m 37.673523,1016.0213 c -0.801411,0 -1.548663,0.1517 -2.241758,0.4549 -0.693112,0.3032 -1.294162,0.7148 -1.803154,1.2346 -0.509004,0.509 -0.915119,1.11 -1.218347,1.8031 -0.292408,0.6931 -0.43861,1.4296 -0.438605,2.2093 -5e-6,0.7797 0.146197,1.5162 0.438605,2.2093 0.303228,0.6931 0.709343,1.2995 1.218347,1.8194 0.508992,0.509 1.110042,0.9151 1.803154,1.2183 0.693095,0.3033 1.440347,0.4549 2.241758,0.4549 0.790561,0 1.532398,-0.1516 2.225514,-0.4549 0.693091,-0.3032 1.294142,-0.7147 1.803154,-1.2346 0.519813,-0.5198 0.925928,-1.1209 1.218347,-1.8031 0.303217,-0.6931 0.454834,-1.4296 0.45485,-2.2093 -1.6e-5,-0.7797 -0.151633,-1.5107 -0.45485,-2.193 -0.292419,-0.6931 -0.698534,-1.2996 -1.218347,-1.8194 -0.509012,-0.5198 -1.110063,-0.9314 -1.803154,-1.2346 -0.693116,-0.3032 -1.434953,-0.4549 -2.225514,-0.4549 m 5.701865,13.1094 0,-0.3248 c -0.812247,0.6497 -1.694871,1.1479 -2.647875,1.4945 -0.95303,0.3465 -1.971026,0.5198 -3.05399,0.5198 -2.51251,0 -4.656799,-0.888 -6.432872,-2.6641 -1.776082,-1.7761 -2.66412,-3.9204 -2.664119,-6.4329 -1e-6,-2.5125 0.888037,-4.6568 2.664119,-6.4329 1.776073,-1.776 3.920362,-2.6641 6.432872,-2.6641 2.49083,0 4.635119,0.8881 6.432873,2.6641 1.776061,1.7761 2.664099,3.9204 2.664119,6.4329 l 0,7.4075 c -2e-5,0.4657 -0.167881,0.8664 -0.503584,1.2022 -0.324911,0.3248 -0.720196,0.4873 -1.185857,0.4873 -0.476527,0 -0.882642,-0.1625 -1.218347,-0.4873 -0.324909,-0.3358 -0.487355,-0.7365 -0.487339,-1.2022"
         style="font-size:33.26899719000000033px;font-style:normal;font-variant:normal;font-weight:bold;font-stretch:normal;line-height:125%;letter-spacing:0px;word-spacing:0px;fill:#ffffff;fill-opacity:1;stroke:none;font-family:Comfortaa;-inkscape-font-specification:Comfortaa Bold"
         id="path3000"
         inkscape:connector-curvature="0" />
      <path
         d="m 58.466649,1016.0213 c -0.801412,0 -1.548664,0.1517 -2.241759,0.4549 -0.693112,0.3032 -1.294162,0.7148 -1.803154,1.2346 -0.509004,0.509 -0.915119,1.11 -1.218347,1.8031 -0.292408,0.6931 -0.438609,1.4296 -0.438605,2.2093 -4e-6,0.7797 0.146197,1.5162 0.438605,2.2093 0.303228,0.6931 0.709343,1.2995 1.218347,1.8194 0.508992,0.509 1.110042,0.9151 1.803154,1.2183 0.693095,0.3033 1.440347,0.4549 2.241759,0.4549 0.79056,0 1.532398,-0.1516 2.225514,-0.4549 0.69309,-0.3032 1.294141,-0.7147 1.803153,-1.2346 0.519813,-0.5198 0.925929,-1.1209 1.218347,-1.8031 0.303217,-0.6931 0.454834,-1.4296 0.45485,-2.2093 -1.6e-5,-0.7797 -0.151633,-1.5107 -0.45485,-2.193 -0.292418,-0.6931 -0.698534,-1.2996 -1.218347,-1.8194 -0.509012,-0.5198 -1.110063,-0.9314 -1.803153,-1.2346 -0.693116,-0.3032 -1.434954,-0.4549 -2.225514,-0.4549 m 5.701864,12.8008 c -1.624477,1.3321 -3.525097,1.9981 -5.701864,1.9981 -2.512511,0 -4.656799,-0.888 -6.432873,-2.6641 -1.776081,-1.7761 -2.66412,-3.9204 -2.664119,-6.4329 -10e-7,-2.5125 0.888038,-4.6568 2.664119,-6.4329 1.776074,-1.776 3.920362,-2.6641 6.432873,-2.6641 2.49083,0 4.635118,0.8881 6.432872,2.6641 1.776061,1.7761 2.6641,3.9204 2.664119,6.4329 l 0,9.032 c -1.9e-5,0.7798 -0.119147,1.5162 -0.357382,2.2093 -0.238273,0.6931 -0.56858,1.3266 -0.990922,1.9006 -0.422378,0.5848 -0.920546,1.11 -1.494506,1.5757 -0.573993,0.4657 -1.196703,0.8556 -1.868132,1.1696 -0.660629,0.3249 -1.353732,0.574 -2.079312,0.7473 -0.725606,0.1733 -1.451198,0.2599 -2.17678,0.2599 -0.86639,0 -1.716525,-0.1137 -2.550407,-0.3411 -0.833898,-0.2166 -1.624469,-0.5415 -2.371716,-0.9747 -0.747257,-0.4332 -1.434946,-0.9693 -2.063067,-1.6082 -0.617299,-0.639 -1.142541,-1.3537 -1.575729,-2.1443 -0.173278,-0.2491 -0.259916,-0.5523 -0.259914,-0.9097 -2e-6,-0.4874 0.162444,-0.8935 0.487339,-1.2184 0.32489,-0.314 0.731005,-0.4711 1.218347,-0.4711 0.324889,0 0.590217,0.076 0.795986,0.2275 0.216591,0.1516 0.508994,0.4873 0.87721,1.0071 0.368206,0.5199 0.693099,0.9152 0.974678,1.1859 1.234584,1.2346 2.723674,1.8519 4.467273,1.8519 1.754407,0 3.238082,-0.6065 4.451028,-1.8194 0.747237,-0.9097 1.120863,-1.7923 1.120879,-2.6479 l 0,-1.9331"
         style="font-size:33.26899719000000033px;font-style:normal;font-variant:normal;font-weight:bold;font-stretch:normal;line-height:125%;letter-spacing:0px;word-spacing:0px;fill:#ffffff;fill-opacity:1;stroke:none;font-family:Comfortaa;-inkscape-font-specification:Comfortaa Bold"
         id="path3002"
         inkscape:connector-curvature="0" />
      <path
         d="m 85.400239,1030.8202 c -0.487355,0 -0.888055,-0.1625 -1.202102,-0.4873 -0.314078,-0.3249 -0.476524,-0.7202 -0.487339,-1.1859 -0.747267,0.5848 -1.537838,1.0126 -2.371716,1.2833 -0.833902,0.2599 -1.738186,0.3899 -2.712853,0.3899 -1.158792,0 -2.252595,-0.222 -3.281414,-0.666 -1.028832,-0.4549 -1.927701,-1.0668 -2.696608,-1.8357 -0.768916,-0.7689 -1.380796,-1.6678 -1.835643,-2.6966 -0.444022,-1.0288 -0.666031,-2.1226 -0.66603,-3.2814 l 0,-8.0249 c -10e-7,-0.4656 0.162445,-0.8609 0.487339,-1.1858 0.33572,-0.3357 0.741835,-0.5036 1.218347,-0.5036 0.465676,0 0.860961,0.1679 1.185858,0.5036 0.335717,0.3249 0.503578,0.7202 0.503583,1.1858 l 0,8.0249 c -5e-6,0.7039 0.129952,1.3646 0.389871,1.9818 0.270739,0.6173 0.633535,1.1588 1.08839,1.6245 0.465673,0.4549 1.00716,0.8177 1.624463,1.0884 0.617287,0.2599 1.277902,0.3899 1.981844,0.3899 0.693094,0 1.348293,-0.13 1.9656,-0.3899 0.617284,-0.2707 1.158771,-0.639 1.624463,-1.1046 0.465666,-0.4657 0.828462,-1.0018 1.08839,-1.6083 0.270729,-0.6172 0.406101,-1.2779 0.406116,-1.9818 l 0,-8.0249 c -1.5e-5,-0.4656 0.162431,-0.8609 0.487339,-1.1858 0.335706,-0.3357 0.741822,-0.5036 1.218347,-0.5036 0.465662,0 0.860948,0.1679 1.185858,0.5036 0.335704,0.3249 0.503565,0.7202 0.503583,1.1858 l 0,14.8151 c -1.8e-5,0.4657 -0.167879,0.8664 -0.503583,1.2022 -0.32491,0.3248 -0.725611,0.4873 -1.202103,0.4873"
         style="font-size:33.26899719000000033px;font-style:normal;font-variant:normal;font-weight:bold;font-stretch:normal;line-height:125%;letter-spacing:0px;word-spacing:0px;fill:#ffffff;fill-opacity:1;stroke:none;font-family:Comfortaa;-inkscape-font-specification:Comfortaa Bold"
         id="path3004"
         inkscape:connector-curvature="0" />
      <path
         d="m 104.22776,1020.0338 c -0.18412,-0.5957 -0.46028,-1.1372 -0.82847,-1.6245 -0.3574,-0.4982 -0.77976,-0.9205 -1.26708,-1.2671 -0.47653,-0.3574 -1.00718,-0.6335 -1.59198,-0.8285 -0.573986,-0.1949 -1.169622,-0.2924 -1.786907,-0.2924 -0.617306,0 -1.218356,0.097 -1.803154,0.2924 -0.584814,0.195 -1.120886,0.4711 -1.608218,0.8285 -0.487345,0.3466 -0.909705,0.7689 -1.267081,1.2671 -0.357387,0.4873 -0.622715,1.0288 -0.795986,1.6245 l 10.948876,0 m -0.73101,5.6693 c 0.48733,0 0.88803,0.1625 1.20211,0.4874 0.32487,0.314 0.48732,0.7147 0.48734,1.2021 -2e-5,0.4765 -0.16247,0.8826 -0.48734,1.2183 -1.67863,1.4729 -3.66047,2.2093 -5.945537,2.2093 -2.51251,0 -4.656799,-0.888 -6.432872,-2.6641 -1.776082,-1.7761 -2.664121,-3.9204 -2.664119,-6.4329 -2e-6,-2.5125 0.888037,-4.6568 2.664119,-6.4329 1.776073,-1.776 3.920362,-2.6641 6.432872,-2.6641 2.490827,0 4.635117,0.8881 6.432877,2.6641 0.88802,0.8773 1.55405,1.8573 1.99808,2.9403 0.44401,1.0722 0.66602,2.2364 0.66603,3.4926 -10e-6,0.4873 -0.16788,0.8935 -0.50358,1.2183 -0.32491,0.3141 -0.72561,0.4711 -1.2021,0.4711 l -12.865746,0 c 0.1841,0.5957 0.454844,1.1426 0.812231,1.6407 0.357376,0.4874 0.774321,0.9098 1.250836,1.2671 0.487332,0.3466 1.017989,0.6173 1.591974,0.8123 0.584797,0.1949 1.191263,0.2924 1.819398,0.2924 0.714753,0 1.369947,-0.1083 1.965597,-0.3249 0.59563,-0.2166 1.14794,-0.5415 1.65696,-0.9747 0.32487,-0.2707 0.6985,-0.4115 1.12087,-0.4224"
         style="font-size:33.26899719000000033px;font-style:normal;font-variant:normal;font-weight:bold;font-stretch:normal;line-height:125%;letter-spacing:0px;word-spacing:0px;fill:#ffffff;fill-opacity:1;stroke:none;font-family:Comfortaa;-inkscape-font-specification:Comfortaa Bold"
         id="path3006"
         inkscape:connector-curvature="0" />
      <path
         d="m 123.52638,1014.3156 0,0.3249 c 0.81223,-0.6497 1.69485,-1.1479 2.64788,-1.4945 0.95301,-0.3465 1.971,-0.5198 3.05399,-0.5198 0.47649,0 0.98549,0.032 1.52699,0.097 0.55231,0.065 1.05589,0.1841 1.51075,0.3574 0.46567,0.1624 0.85012,0.3898 1.15337,0.6822 0.30322,0.2925 0.45483,0.6715 0.45485,1.1372 -2e-5,0.2382 -0.0488,0.4602 -0.1462,0.666 -0.0867,0.2058 -0.20578,0.3899 -0.35738,0.5523 -0.15163,0.1516 -0.33033,0.2708 -0.53608,0.3574 -0.20578,0.087 -0.42779,0.13 -0.66603,0.1299 -0.20577,10e-5 -0.44403,-0.059 -0.71476,-0.1786 -0.68229,-0.2708 -1.42412,-0.4062 -2.22551,-0.4062 -0.79059,0 -1.53242,0.1517 -2.22552,0.4549 -0.69311,0.2924 -1.29957,0.6985 -1.8194,1.2183 -0.509,0.509 -0.91512,1.1101 -1.21834,1.8032 -0.29241,0.6931 -0.43861,1.4349 -0.43861,2.2255 l 0,7.4075 c 0,0.4657 -0.16786,0.8664 -0.50358,1.2022 -0.3249,0.3248 -0.72018,0.4873 -1.18586,0.4873 -0.47651,0 -0.88263,-0.1625 -1.21835,-0.4873 -0.32489,-0.3358 -0.48734,-0.7365 -0.48734,-1.2022 l 0,-14.8151 c 0,-0.4656 0.16245,-0.8609 0.48734,-1.1858 0.33572,-0.3357 0.74184,-0.5036 1.21835,-0.5036 0.46568,0 0.86096,0.1679 1.18586,0.5036 0.33572,0.3249 0.50358,0.7202 0.50358,1.1858"
         style="font-size:33.26899719000000033px;font-style:normal;font-variant:normal;font-weight:bold;font-stretch:normal;line-height:125%;letter-spacing:0px;word-spacing:0px;fill:#ffffff;fill-opacity:1;stroke:none;font-family:Comfortaa;-inkscape-font-specification:Comfortaa Bold"
         id="path3008"
         inkscape:connector-curvature="0" />
      <path
         d="m 150.36251,1020.0338 c -0.18413,-0.5957 -0.46028,-1.1372 -0.82848,-1.6245 -0.3574,-0.4982 -0.77976,-0.9205 -1.26708,-1.2671 -0.47652,-0.3574 -1.00718,-0.6335 -1.59198,-0.8285 -0.57398,-0.1949 -1.16962,-0.2924 -1.7869,-0.2924 -0.61731,0 -1.21836,0.097 -1.80316,0.2924 -0.58481,0.195 -1.12088,0.4711 -1.60822,0.8285 -0.48734,0.3466 -0.9097,0.7689 -1.26708,1.2671 -0.35738,0.4873 -0.62271,1.0288 -0.79598,1.6245 l 10.94888,0 m -0.73101,5.6693 c 0.48732,0 0.88802,0.1625 1.2021,0.4874 0.32488,0.314 0.48732,0.7147 0.48734,1.2021 -2e-5,0.4765 -0.16246,0.8826 -0.48734,1.2183 -1.67863,1.4729 -3.66047,2.2093 -5.94553,2.2093 -2.51251,0 -4.6568,-0.888 -6.43288,-2.6641 -1.77608,-1.7761 -2.66412,-3.9204 -2.66412,-6.4329 0,-2.5125 0.88804,-4.6568 2.66412,-6.4329 1.77608,-1.776 3.92037,-2.6641 6.43288,-2.6641 2.49083,0 4.63511,0.8881 6.43287,2.6641 0.88802,0.8773 1.55405,1.8573 1.99809,2.9403 0.444,1.0722 0.66601,2.2364 0.66603,3.4926 -2e-5,0.4873 -0.16788,0.8935 -0.50359,1.2183 -0.32491,0.3141 -0.72561,0.4711 -1.2021,0.4711 l -12.86574,0 c 0.1841,0.5957 0.45484,1.1426 0.81223,1.6407 0.35737,0.4874 0.77432,0.9098 1.25083,1.2671 0.48734,0.3466 1.01799,0.6173 1.59198,0.8123 0.58479,0.1949 1.19126,0.2924 1.8194,0.2924 0.71475,0 1.36995,-0.1083 1.9656,-0.3249 0.59562,-0.2166 1.14794,-0.5415 1.65695,-0.9747 0.32488,-0.2707 0.6985,-0.4115 1.12088,-0.4224 m -1.23459,-17.9665 -3.24893,3.2327 c -0.30324,0.3032 -0.69311,0.4548 -1.16961,0.4548 -0.48735,0 -0.89347,-0.157 -1.21835,-0.4711 -0.31407,-0.3249 -0.4711,-0.731 -0.47109,-1.2183 -1e-5,-0.4657 0.14077,-0.8501 0.42236,-1.1534 l 3.24892,-3.2327 c 0.34654,-0.3357 0.74724,-0.5035 1.2021,-0.5036 0.48733,10e-5 0.88803,0.1679 1.20211,0.5036 0.32487,0.3249 0.48732,0.7256 0.48733,1.2021 -1e-5,0.4874 -0.15163,0.8827 -0.45484,1.1859"
         style="font-size:33.26899719000000033px;font-style:normal;font-variant:normal;font-weight:bold;font-stretch:normal;line-height:125%;letter-spacing:0px;word-spacing:0px;fill:#ffffff;fill-opacity:1;stroke:none;font-family:Comfortaa;-inkscape-font-specification:Comfortaa Bold"
         id="path3010"
         inkscape:connector-curvature="0" />
      <path
         d="m 171.82166,1030.8202 c -0.48735,0 -0.88805,-0.1625 -1.2021,-0.4873 -0.31408,-0.3249 -0.47652,-0.7202 -0.48734,-1.1859 -0.74726,0.5848 -1.53784,1.0126 -2.37171,1.2833 -0.83391,0.2599 -1.73819,0.3899 -2.71286,0.3899 -1.15879,0 -2.25259,-0.222 -3.28141,-0.666 -1.02883,-0.4549 -1.9277,-1.0668 -2.69661,-1.8357 -0.76891,-0.7689 -1.38079,-1.6678 -1.83564,-2.6966 -0.44402,-1.0288 -0.66603,-2.1226 -0.66603,-3.2814 l 0,-8.0249 c 0,-0.4656 0.16244,-0.8609 0.48734,-1.1858 0.33572,-0.3357 0.74183,-0.5036 1.21834,-0.5036 0.46568,0 0.86097,0.1679 1.18586,0.5036 0.33572,0.3249 0.50358,0.7202 0.50359,1.1858 l 0,8.0249 c -1e-5,0.7039 0.12995,1.3646 0.38987,1.9818 0.27074,0.6173 0.63353,1.1588 1.08839,1.6245 0.46567,0.4549 1.00716,0.8177 1.62446,1.0884 0.61729,0.2599 1.2779,0.3899 1.98184,0.3899 0.6931,0 1.3483,-0.13 1.9656,-0.3899 0.61729,-0.2707 1.15877,-0.639 1.62447,-1.1046 0.46566,-0.4657 0.82846,-1.0018 1.08839,-1.6083 0.27073,-0.6172 0.4061,-1.2779 0.40611,-1.9818 l 0,-8.0249 c -1e-5,-0.4656 0.16243,-0.8609 0.48734,-1.1858 0.33571,-0.3357 0.74182,-0.5036 1.21835,-0.5036 0.46566,0 0.86095,0.1679 1.18586,0.5036 0.3357,0.3249 0.50356,0.7202 0.50358,1.1858 l 0,14.8151 c -2e-5,0.4657 -0.16788,0.8664 -0.50358,1.2022 -0.32491,0.3248 -0.72561,0.4873 -1.20211,0.4873"
         style="font-size:33.26899719000000033px;font-style:normal;font-variant:normal;font-weight:bold;font-stretch:normal;line-height:125%;letter-spacing:0px;word-spacing:0px;fill:#ffffff;fill-opacity:1;stroke:none;font-family:Comfortaa;-inkscape-font-specification:Comfortaa Bold"
         id="path3012"
         inkscape:connector-curvature="0" />
      <path
         d="m 179.39165,1022.1618 c -1.018,-0.3899 -1.73276,-0.7906 -2.14429,-1.2021 l 0.0163,0 c -0.82307,-0.8339 -1.2346,-1.814 -1.23459,-2.9403 -1e-5,-0.823 0.21659,-1.5649 0.64978,-2.2255 0.44402,-0.6714 1.01799,-1.24 1.72193,-1.7057 0.70393,-0.4656 1.4945,-0.823 2.37172,-1.0721 0.88803,-0.2599 1.77607,-0.3899 2.66412,-0.3899 2.70742,0 5.0304,1.0884 6.96894,3.2652 0.22741,0.2816 0.34112,0.6227 0.34114,1.0234 -2e-5,0.4873 -0.16246,0.8935 -0.48734,1.2183 -0.31408,0.3141 -0.71478,0.4711 -1.2021,0.4711 -0.34657,0 -0.64439,-0.097 -0.89346,-0.2924 -0.23827,-0.1949 -0.47111,-0.4061 -0.69852,-0.6335 -1.10464,-1.1046 -2.44753,-1.657 -4.02866,-1.657 -1.5595,0 -2.80492,0.4766 -3.73627,1.4296 -0.17328,0.1733 -0.25992,0.4115 -0.25991,0.7147 -1e-5,0.3033 0.14078,0.509 0.42236,0.6173 l 7.60248,2.5017 c 1.0613,0.4115 1.77607,0.8122 2.14429,1.2021 l -0.0162,0 c 0.82304,0.8339 1.23457,1.814 1.23459,2.9403 -2e-5,0.8339 -0.22203,1.5811 -0.66603,2.2417 -0.4332,0.6607 -1.00177,1.2292 -1.70568,1.7057 -0.70395,0.4657 -1.49452,0.8231 -2.37172,1.0722 -0.87722,0.249 -1.75984,0.3736 -2.64787,0.3736 -2.72911,0 -5.05209,-1.0776 -6.96895,-3.2327 -0.23826,-0.314 -0.35738,-0.666 -0.35738,-1.0559 0,-0.4873 0.15703,-0.888 0.47109,-1.2021 0.32489,-0.3249 0.73101,-0.4873 1.21835,-0.4873 0.35738,0 0.66061,0.1083 0.9097,0.3249 0.24908,0.2057 0.4765,0.4061 0.68227,0.601 1.10463,1.1046 2.45293,1.657 4.04492,1.657 1.54864,0 2.79406,-0.4874 3.73626,-1.4621 0.16243,-0.1841 0.24366,-0.4061 0.24367,-0.666 -1e-5,-0.3032 -0.14622,-0.5144 -0.43861,-0.6335 l -7.58624,-2.5017"
         style="font-size:33.26899719000000033px;font-style:normal;font-variant:normal;font-weight:bold;font-stretch:normal;line-height:125%;letter-spacing:0px;word-spacing:0px;fill:#ffffff;fill-opacity:1;stroke:none;font-family:Comfortaa;-inkscape-font-specification:Comfortaa Bold"
         id="path3014"
         inkscape:connector-curvature="0" />
      <path
         d="m 196.61095,1022.1618 c -1.018,-0.3899 -1.73276,-0.7906 -2.14429,-1.2021 l 0.0163,0 c -0.82307,-0.8339 -1.2346,-1.814 -1.2346,-2.9403 0,-0.823 0.2166,-1.5649 0.64979,-2.2255 0.44402,-0.6714 1.01799,-1.24 1.72193,-1.7057 0.70393,-0.4656 1.4945,-0.823 2.37172,-1.0721 0.88803,-0.2599 1.77607,-0.3899 2.66411,-0.3899 2.70743,0 5.03041,1.0884 6.96895,3.2652 0.22741,0.2816 0.34112,0.6227 0.34114,1.0234 -2e-5,0.4873 -0.16247,0.8935 -0.48734,1.2183 -0.31408,0.3141 -0.71478,0.4711 -1.2021,0.4711 -0.34657,0 -0.64439,-0.097 -0.89346,-0.2924 -0.23827,-0.1949 -0.47111,-0.4061 -0.69852,-0.6335 -1.10464,-1.1046 -2.44753,-1.657 -4.02867,-1.657 -1.55949,0 -2.80491,0.4766 -3.73626,1.4296 -0.17328,0.1733 -0.25992,0.4115 -0.25991,0.7147 -1e-5,0.3033 0.14078,0.509 0.42236,0.6173 l 7.60248,2.5017 c 1.0613,0.4115 1.77607,0.8122 2.14429,1.2021 l -0.0162,0 c 0.82304,0.8339 1.23457,1.814 1.23459,2.9403 -2e-5,0.8339 -0.22203,1.5811 -0.66603,2.2417 -0.4332,0.6607 -1.00177,1.2292 -1.70569,1.7057 -0.70394,0.4657 -1.49451,0.8231 -2.37171,1.0722 -0.87722,0.249 -1.75985,0.3736 -2.64788,0.3736 -2.7291,0 -5.05208,-1.0776 -6.96894,-3.2327 -0.23826,-0.314 -0.35738,-0.666 -0.35738,-1.0559 0,-0.4873 0.15703,-0.888 0.47109,-1.2021 0.32489,-0.3249 0.73101,-0.4873 1.21835,-0.4873 0.35738,0 0.66061,0.1083 0.9097,0.3249 0.24908,0.2057 0.4765,0.4061 0.68227,0.601 1.10463,1.1046 2.45293,1.657 4.04491,1.657 1.54865,0 2.79407,-0.4874 3.73627,-1.4621 0.16243,-0.1841 0.24366,-0.4061 0.24367,-0.666 -1e-5,-0.3032 -0.14622,-0.5144 -0.43861,-0.6335 l -7.58624,-2.5017"
         style="font-size:33.26899719000000033px;font-style:normal;font-variant:normal;font-weight:bold;font-stretch:normal;line-height:125%;letter-spacing:0px;word-spacing:0px;fill:#ffffff;fill-opacity:1;stroke:none;font-family:Comfortaa;-inkscape-font-specification:Comfortaa Bold"
         id="path3016"
         inkscape:connector-curvature="0" />
      <path
         d="m 215.11359,1009.3935 c 0,0.5524 -0.19494,1.0235 -0.5848,1.4133 -0.38988,0.3899 -0.86097,0.5848 -1.41329,0.5848 -0.55232,0 -1.02341,-0.1949 -1.41328,-0.5848 -0.38987,-0.3898 -0.58481,-0.8609 -0.58481,-1.4133 0,-0.5523 0.19494,-1.0234 0.58481,-1.4133 0.38987,-0.3898 0.86096,-0.5847 1.41328,-0.5848 0.55232,10e-5 1.02341,0.195 1.41329,0.5848 0.38986,0.3899 0.5848,0.861 0.5848,1.4133 m -3.68753,19.721 0,-14.7826 c 0,-0.4765 0.16245,-0.8772 0.48734,-1.2021 0.33572,-0.3357 0.73642,-0.5036 1.2021,-0.5036 0.46568,0 0.86096,0.1679 1.18586,0.5036 0.33572,0.3249 0.50899,0.7256 0.51983,1.2021 l 0,14.7826 c -0.0108,0.4765 -0.18411,0.8826 -0.51983,1.2184 -0.3249,0.3248 -0.72018,0.4873 -1.18586,0.4873 -0.46568,0 -0.86638,-0.1625 -1.2021,-0.4873 -0.32489,-0.3358 -0.48734,-0.7419 -0.48734,-1.2184"
         style="font-size:33.26899719000000033px;font-style:normal;font-variant:normal;font-weight:bold;font-stretch:normal;line-height:125%;letter-spacing:0px;word-spacing:0px;fill:#ffffff;fill-opacity:1;stroke:none;font-family:Comfortaa;-inkscape-font-specification:Comfortaa Bold"
         id="path3018"
         inkscape:connector-curvature="0" />
      <path
         d="m 232.88522,1020.0338 c -0.18412,-0.5957 -0.46028,-1.1372 -0.82848,-1.6245 -0.35739,-0.4982 -0.77975,-0.9205 -1.26708,-1.2671 -0.47652,-0.3574 -1.00718,-0.6335 -1.59197,-0.8285 -0.57399,-0.1949 -1.16963,-0.2924 -1.78691,-0.2924 -0.61731,0 -1.21836,0.097 -1.80316,0.2924 -0.58481,0.195 -1.12088,0.4711 -1.60821,0.8285 -0.48735,0.3466 -0.90971,0.7689 -1.26708,1.2671 -0.35739,0.4873 -0.62272,1.0288 -0.79599,1.6245 l 10.94888,0 m -0.73101,5.6693 c 0.48732,0 0.88802,0.1625 1.2021,0.4874 0.32488,0.314 0.48732,0.7147 0.48734,1.2021 -2e-5,0.4765 -0.16246,0.8826 -0.48734,1.2183 -1.67862,1.4729 -3.66047,2.2093 -5.94553,2.2093 -2.51251,0 -4.6568,-0.888 -6.43287,-2.6641 -1.77609,-1.7761 -2.66412,-3.9204 -2.66412,-6.4329 0,-2.5125 0.88803,-4.6568 2.66412,-6.4329 1.77607,-1.776 3.92036,-2.6641 6.43287,-2.6641 2.49083,0 4.63512,0.8881 6.43287,2.6641 0.88802,0.8773 1.55405,1.8573 1.99809,2.9403 0.444,1.0722 0.66601,2.2364 0.66603,3.4926 -2e-5,0.4873 -0.16788,0.8935 -0.50358,1.2183 -0.32491,0.3141 -0.72562,0.4711 -1.20211,0.4711 l -12.86574,0 c 0.1841,0.5957 0.45484,1.1426 0.81223,1.6407 0.35738,0.4874 0.77432,0.9098 1.25084,1.2671 0.48733,0.3466 1.01799,0.6173 1.59197,0.8123 0.5848,0.1949 1.19126,0.2924 1.8194,0.2924 0.71475,0 1.36995,-0.1083 1.9656,-0.3249 0.59562,-0.2166 1.14794,-0.5415 1.65695,-0.9747 0.32488,-0.2707 0.6985,-0.4115 1.12088,-0.4224"
         style="font-size:33.26899719000000033px;font-style:normal;font-variant:normal;font-weight:bold;font-stretch:normal;line-height:125%;letter-spacing:0px;word-spacing:0px;fill:#ffffff;fill-opacity:1;stroke:none;font-family:Comfortaa;-inkscape-font-specification:Comfortaa Bold"
         id="path3020"
         inkscape:connector-curvature="0" />
      <path
         d="m 243.54169,1028.5135 c 0,0.3248 -0.065,0.6281 -0.19493,0.9097 -0.11914,0.2815 -0.287,0.5252 -0.50359,0.731 -0.20577,0.2057 -0.44944,0.3682 -0.73101,0.4873 -0.28157,0.1191 -0.57398,0.1787 -0.87721,0.1787 -0.31406,0 -0.61188,-0.06 -0.89345,-0.1787 -0.27075,-0.1191 -0.51442,-0.2816 -0.73101,-0.4873 -0.20576,-0.2058 -0.37363,-0.4495 -0.50358,-0.731 -0.11913,-0.2816 -0.17869,-0.5849 -0.17869,-0.9097 0,-0.3141 0.0596,-0.6119 0.17869,-0.8935 0.11912,-0.2816 0.28157,-0.5252 0.48734,-0.731 0.21659,-0.2166 0.46567,-0.3845 0.74725,-0.5036 0.28157,-0.1299 0.57939,-0.1949 0.89345,-0.1949 0.31406,0 0.61188,0.065 0.89346,0.1949 0.28157,0.1191 0.52524,0.287 0.73101,0.5036 0.21659,0.2058 0.38445,0.4494 0.50358,0.731 0.11912,0.2816 0.17869,0.5794 0.17869,0.8935 m -3.99618,-21.9628 c 0,-0.4765 0.15703,-0.8772 0.4711,-1.2021 0.32489,-0.3357 0.731,-0.5035 1.21834,-0.5036 0.48734,10e-5 0.88804,0.1679 1.20211,0.5036 0.32488,0.3249 0.48733,0.7256 0.48734,1.2021 l 0,16.9594 c -1e-5,0.2274 -0.0487,0.444 -0.14621,0.6498 -0.0866,0.2058 -0.20577,0.3845 -0.35738,0.5361 -0.15162,0.1516 -0.33031,0.2707 -0.53607,0.3573 -0.20577,0.087 -0.42236,0.13 -0.64979,0.13 -0.23825,0 -0.46026,-0.043 -0.66603,-0.13 -0.20576,-0.097 -0.38445,-0.222 -0.53607,-0.3736 -0.15162,-0.1516 -0.27074,-0.3249 -0.35738,-0.5198 -0.0866,-0.2058 -0.12996,-0.4224 -0.12996,-0.6498 l 0,-16.9594"
         style="font-size:33.26899719000000033px;font-style:normal;font-variant:normal;font-weight:bold;font-stretch:normal;line-height:125%;letter-spacing:0px;word-spacing:0px;fill:#ffffff;fill-opacity:1;stroke:none;font-family:Comfortaa;-inkscape-font-specification:Comfortaa Bold"
         id="path3022"
         inkscape:connector-curvature="0" />
    </g>
    <text
       sodipodi:linespacing="125%"
       id="text2993"
       y="970.82019"
       x="7.068645"
       style="font-size:33.26899719px;font-style:normal;font-variant:normal;font-weight:bold;font-stretch:normal;line-height:125%;letter-spacing:0px;word-spacing:0px;fill:#000000;fill-opacity:1;stroke:none;font-family:Comfortaa;-inkscape-font-specification:Comfortaa Bold"
       xml:space="preserve"><tspan
         y="970.82019"
         x="7.068645"
         id="tspan2995"
         sodipodi:role="line">Vague réussie!</tspan></text>
  </g>
</svg>
